<svg width="65" height="65" viewBox="0 0 65 65" fill="none" xmlns="http://www.w3.org/2000/svg">
<rect width="65" height="65" rx="9" fill="white"/>
<g transform="translate(2.214 9.233) scale(0.8844)">
<path d="M61.2479 2.03261C61.1064 2.02235 60.9494 2.0219 60.806 2.01815C54.1959 1.84193 47.4117 2.91439 41.6448 6.37472C38.8881 8.02878 35.6882 10.6885 34.9925 14.0556C34.792 15.0251 34.8886 16.8653 34.8894 17.9196L34.881 44.0529L34.8858 50.9434C34.8871 51.8198 34.8886 52.9548 34.8886 53.5537C34.8886 53.7293 34.9306 53.9088 35.0616 53.9753C35.1926 54.0418 35.3685 53.9706 35.6014 53.7961C36.191 53.3543 37.1108 52.6645 37.8263 52.1557C44.9027 47.2922 53.1588 46.1459 61.4922 47.1745C62.6732 47.3497 63.6798 47.2723 64.6488 46.4889C66.2228 45.2171 65.9995 43.6125 65.9984 41.8144L65.9927 37.6284L65.9933 12.0851L66.0018 8.54598C66.0086 6.7277 66.1551 5.3221 64.92 3.83796C63.9663 2.69197 62.6911 2.16643 61.2479 2.03261Z" fill="#AA142D"/>
<path d="M49.2919 15.2544C50.0629 15.2407 50.8625 15.2473 51.6315 15.2724C52.3487 15.2958 52.1565 16.2645 52.1517 16.7559C52.1465 17.4539 52.1473 18.1519 52.1533 18.8499L57.7539 18.8338C58.4064 18.8332 60.3717 18.729 60.8863 18.9833C61.1283 19.2648 61.0057 20.3455 61.0202 20.7225C61.029 20.9435 61.0455 21.9327 60.8771 21.9618C60.1149 22.0937 57.8392 22.0445 57.1883 22.0464C56.5572 24.9007 54.4841 28.7724 52.5634 30.9538C53.0228 31.278 53.5261 31.7115 53.9905 32.057C54.9263 32.7462 55.9076 33.3701 56.927 33.924C57.733 34.3477 58.5535 34.7421 59.3869 35.1066C59.7004 35.2449 61.0692 35.7367 61.1251 36.0458C61.0334 36.3799 59.5456 38.6844 59.2819 38.9989C56.3634 38.0376 53.215 36.0679 50.8641 34.0834C50.602 33.8697 50.3681 33.6434 50.1224 33.4109C48.3766 35.1964 43.3986 38.4242 41.0232 39.0188C40.6787 38.5951 39.3184 36.6307 39.2625 36.1629C39.3598 35.8403 40.4681 35.4835 40.8468 35.3101C43.5128 34.092 45.4898 32.8604 47.7201 30.9559C45.8034 28.471 43.8537 25.1724 43.2294 22.0406C42.7036 22.0297 39.9507 22.1313 39.7167 21.9053C39.5869 21.6299 39.6625 20.2499 39.6343 19.8571C39.6199 19.7293 39.6444 19.0374 39.7714 18.9915C40.483 18.7342 42.3828 18.8282 43.0437 18.8276L48.4533 18.8381C48.4976 18.2342 48.3179 15.7491 48.6081 15.4458C48.7938 15.2516 49.0451 15.2616 49.2919 15.2544Z" fill="white"/>
<path d="M46.7128 22.0578L53.5525 22.0569C53.0544 23.5868 52.3897 25.0561 51.5697 26.4379C51.1629 27.0845 50.6155 27.9367 50.1066 28.495C49.7643 27.9791 49.2141 27.3291 48.907 26.831C48.1506 25.6056 47.0063 23.4386 46.7128 22.0578Z" fill="#AA142D"/>
<path d="M6.77307 2.03261C6.91459 2.02235 7.07156 2.0219 7.21497 2.01815C13.825 1.84193 20.6093 2.91439 26.3762 6.37472C29.1328 8.02878 32.3328 10.6885 33.0285 14.0556C33.229 15.0251 33.1694 16.9468 33.1686 18.0011L33.1399 44.0529L33.1351 50.9434C33.1339 51.8198 33.1323 52.9548 33.1323 53.5537C33.1323 53.7293 33.0904 53.9088 32.9594 53.9753C32.8283 54.0418 32.6524 53.9706 32.4196 53.7961C31.83 53.3543 30.9101 52.6645 30.1946 52.1557C23.1182 47.2922 14.8622 46.1459 6.52881 47.1745C5.34775 47.3497 4.34115 47.2723 3.37221 46.4889C1.79823 45.2171 2.02147 43.6125 2.02259 41.8144L2.02829 37.6284L2.02769 12.0851L2.01922 8.54598C2.01236 6.7277 1.86586 5.3221 3.101 3.83796C4.05473 2.69197 5.32986 2.16643 6.77307 2.03261Z" fill="#37383C"/>
<path d="M15.1249 16.5281C15.7663 16.49 18.8247 16.4256 19.2327 16.6113C19.3968 16.6859 19.5165 16.9744 19.5902 17.1375C20.0081 18.0624 20.3463 19.0502 20.7239 19.9953L23.0176 25.682C24.1282 28.4049 25.2177 31.1369 26.286 33.8772C26.7901 35.1704 27.3269 36.4672 27.7815 37.7763C27.8991 38.1149 27.4879 38.1149 27.4879 38.1149C27.4879 38.1149 23.4152 38.191 23.2133 38.0347C22.9323 37.8174 21.5035 33.7994 21.3273 33.1966C20.6709 33.1689 19.9386 33.1881 19.2764 33.1921C17.1899 33.195 14.9523 33.1518 12.8789 33.2072C12.2903 34.7104 11.7986 36.2669 11.1754 37.7571C11.1315 37.8626 10.9967 38.0071 10.9188 38.0905C10.3874 38.1658 7.22851 38.1927 6.79515 38.0518C6.70543 38.0225 6.58855 37.9688 6.55141 37.8756C6.48702 37.714 6.58011 37.4978 6.63421 37.3411C7.05194 36.1298 7.58654 34.9404 8.05197 33.7457L11.982 23.8843L14.0149 18.6841C14.2456 18.104 14.4624 17.5031 14.6976 16.9241C14.7882 16.701 14.9192 16.6275 15.1249 16.5281Z" fill="white"/>
<path d="M17.1041 21.6855C17.1849 21.7649 19.7448 28.7412 19.9647 29.3584L17.1502 29.3613C16.1754 29.3527 15.2017 29.3695 14.2242 29.3568C14.8232 27.8166 15.4044 26.2692 15.9677 24.7152C16.2677 23.8766 16.7374 22.4662 17.1041 21.6855Z" fill="#37383C"/>
</g>
</svg>
